<?xml version="1.0" encoding="UTF-8"?>
<svg width="210mm" height="240mm" version="1.1" viewBox="0 0 210 240" xmlns="http://www.w3.org/2000/svg" xmlns:cc="http://creativecommons.org/ns#" xmlns:dc="http://purl.org/dc/elements/1.1/" xmlns:rdf="http://www.w3.org/1999/02/22-rdf-syntax-ns#">
<g transform="matrix(.92233 0 0 .92233 11.079 -.72513)" stroke="#000" stroke-width=".26458px">
<path d="m4.8109 175.13-13.096 10.958s7.2163-2.94 12.562 0.53453c5.3454 3.4745 3.7418 2.94-0.80181 8.0181-4.5436 5.0781 3.7418 5.8799 9.6217 7.4836 5.8799 1.6036 11.945 4.8278 11.945 4.8278s2.2679 0.47247 0 2.7403c-2.2679 2.2679-4.2522 1.7954 3.4018 9.4494s5.1027 5.0082 8.6935 11.056c3.5908 6.0476 14.458 5.4806 17.292 5.4806 2.8348 0 5.7641 0.28348 3.4018 2.4568-2.3624 2.1734-4.7247 2.2678-0.94494 3.2128 3.7798 0.94495 16.82 1.0394 23.812-0.75595s10.678-3.6853 10.583 2.6458c-0.09449 6.3311 17.67-2.2679 18.521-0.28349 0.85045 1.9844 11.434 1.0394 11.434-0.66145 0-1.7009 4.7247-0.56697 4.4412-1.7009s19.844-0.47247 20.505 0.0945c0.66146 0.56696 8.9769 1.1339 7.7485 0.47247-1.2284-0.66146 10.016-1.7009 11.528 0 1.5119 1.7009-2.3624 9.2604-2.2678 10.016 0.0945 0.75595-0.0945 5.2917-0.0945 5.6696 0 0.37797 15.119 0.37797 15.214-1.4174 0.0945-1.7954 0-4.6302 0-4.6302s-0.28349-1.0394 1.2284-0.94494c1.5119 0.0945 14.741-1.6064 16.725-3.7798 1.9844-2.1734 2.0789-1.8899 2.1734 2.2678s-0.85045 6.5201 10.205 0.66146c11.056-5.8586 5.3862-7.276 4.1577-11.056s-16.064-36.097-16.82-37.703c-0.75595-1.6064-12.001-28.821-12.946-31.75-0.94494-2.9293-4.1577-18.993-4.9137-25.23-0.75596-6.2366-4.9137-30.522-6.0476-32.128s-3.2128-20.411-8.3155-22.49c-5.1027-2.0789-3.3073-5.0082-14.269-3.1183-10.961 1.8899-31.656 14.552-34.396 16.347-2.7403 1.7954-20.411 25.041-30.144 30.9-9.7329 5.8586-22.773 12.284-30.427 15.214-7.654 2.9293-26.458 11.339-30.522 14.269-4.0632 2.9293-19.191 12.874-19.191 12.874z"/>
<path d="m122.54 87.06s0.73499-9.7553 1.2695-11.76c0.53454-2.0045 0.4343-9.7219 0.4343-9.7219s1.637-5.9133 5.312-6.1138c3.675-0.20045 7.6172-1.9377 10.089 0.60136 2.4722 2.5391 2.94 3.6081 3.8754 6.949 0.93544 3.3409 5.0113 10.691 5.9467 12.294 0.93545 1.6036 2.0713 2.94 1.4032 3.0736-0.66818 0.13363-5.3454-0.80181-5.8799-0.33409-0.53454 0.46772-1.6036 1.4032-0.73499 2.1382 0.86862 0.73499 6.214 2.6059 6.214 2.6059l-27.796 14.299-7.3499 0.46772s13.363-9.0872 14.299-11.559-0.80181-5.6795-2.4722-5.0113c-1.6704 0.66817-4.6104 2.0713-4.6104 2.0713z"/>
<path d="m100.59 125.59-5.5279-2.1734s-0.23624 0.75596-0.89769 0.14175c-0.66146-0.61422-1.1576-0.0472-1.3229 0.11811-0.16536 0.16537-0.68508 1.1576-1.2048 1.2993-0.51972 0.14174-1.0631-0.23624-1.4647-0.47247-0.4016-0.23624-0.96856-2.2679-1.0158-2.6222-0.04725-0.35436-2.7167-0.54334-3.638-0.51972-0.92132 0.0236-0.96856-0.28348-0.99219 0.3071-0.02363 0.59059-0.28348 3.2364-0.25986 3.449 0.02363 0.21261 0.73233-0.11812 0.96857 0.11811 0.23624 0.23624-0.18899 0.44885 0.3071 0.51972 0.49609 0.0709 1.5355-0.11812 1.7481 0.0472 0.21261 0.16536 0.04725 0.25986 0.33073 0.56696 0.28348 0.30711 0.61421 0.28349 0.75595 0.51972 0.14174 0.23624 0.04725 4.3467 0.04725 4.3467z"/>
<path d="m85.352 122.16-14.906-11.741-24.379-18.072-23.127-17.316-24.285-17.552-1.3938 1.9844 14.93 11.103 15.355 11.339 12.804 9.473 15.804 11.812 11.481 8.5045 17.056 11.599z"/>
</g>
</svg>
