<?xml version="1.0" encoding="UTF-8"?>
<svg width="210mm" height="220mm" version="1.1" viewBox="0 0 210 220" xmlns="http://www.w3.org/2000/svg" xmlns:cc="http://creativecommons.org/ns#" xmlns:dc="http://purl.org/dc/elements/1.1/" xmlns:rdf="http://www.w3.org/1999/02/22-rdf-syntax-ns#">
<g transform="matrix(2.8856 0 0 2.8856 -185.33 -190.73)">
<path d="m109.71 113.32s-1.0023-0.20046-1.1359 1.6036c-0.13363 1.8041 2.6727 4.744 2.6727 4.744l2.205 2.4722 10.29 4.8108s4.8108 3.1404 6.4145 4.3431c1.6036 1.2027 7.4167 5.2118 7.4167 5.2118l-72.029 2.94s17.907-11.092 20.513-12.027c2.6059-0.93544 1.3363-2.0045 0.33409-2.8731-1.0023-0.86863-5.3454-5.2118-5.2786-8.0181 0.06682-2.8063 28.598-3.2072 28.598-3.2072z"/>
<path d="m68.354 109.78s0.93544 0.93545 1.8709 1.47c0.93544 0.53454 1.6036-0.40091 2.8731 2.6727 1.2695 3.0736 4.744 4.0759 5.0781 4.0759s2.205-0.26728 3.5413-1.7373 23.787-17.707 23.787-17.707l-37.084-3.3409s-2.94 0.26727-3.0068 5.9467c-0.06682 5.6795 1.47 7.1495 1.6036 7.5504 0.13364 0.4009 1.3363 1.0691 1.3363 1.0691z"/>
<path d="m74.034 96.08 46.505-2.4722s-1.0691 0.80181 0.93544 4.4768c2.0045 3.675 2.205 4.6772 1.2695 6.6817-2.6191 5.6952-4.6686 3.1196-4.4768 6.0136-0.26726 2.3386-3.675 4.2095-3.675 4.2095-1.3306 0.65249-3.5151-0.38951-4.8777-1.6704l-12.562 8.419-22.05-11.225z"/>
<path d="m68.421 95.211s0.80181-0.46772-1.0023-1.9377c-1.8041-1.47 0.73499-5.7463 1.637-6.8822 2.2292-2.9261 7.1185-2.8486 7.517-5.4122 0.33409-3.1404 31.605 0 31.605 0s4.744-0.73499 5.6127-0.06682c0.86863 0.66817 3.8086 3.4077 3.8086 3.4077s4.4768 2.6059 2.94 9.2876c-1.5368 6.6817-29.667 12.695-29.667 12.695z"/>
<path d="m74.702 84.888-0.90204-1.5034 0.90204-0.4009 0.93544 0.26727s-0.20045-1.7038 0.56795-2.5391c0.7684-0.83522 2.5725-2.4722 2.5725-2.4722s1.0023-1.6036 1.4032-2.0713c0.21332-1.093 8.9199-4.0654 8.9869-3.842 5.7278-1.0957 8.2937 0.06724 10.991 1.1359 4.2871 1.9505 6.4517 5.193 8.7531 8.3522l-25.524 7.4835z"/>
<rect x="81.116" y="111.05" width="11.092" height="5.6795"/>
</g>
</svg>
