<?xml version="1.0" encoding="UTF-8"?>
<svg width="210mm" height="220mm" version="1.1" viewBox="0 0 210 220" xmlns="http://www.w3.org/2000/svg" xmlns:cc="http://creativecommons.org/ns#" xmlns:dc="http://purl.org/dc/elements/1.1/" xmlns:rdf="http://www.w3.org/1999/02/22-rdf-syntax-ns#">
<g transform="matrix(.78742 0 0 .78742 -17.78 11.367)">
<g stroke="#000" stroke-width=".26458px">
<path d="m112.25 8.3489s-10.958-0.53454-15.101 8.1517c-4.1427 8.6863-4.6772 12.963-7.8845 16.036-3.2072 3.0736-12.695 19.243-14.7 20.847-2.0045 1.6036-13.764 13.898-14.032 16.972-0.26727 3.0736 1.2027 6.6817 2.2718 8.6863 1.0691 2.0045-0.53454 4.5436-4.1427 12.294-3.6081 7.7508-8.419 15.368-8.2854 23.52 0.13364 8.1517 0 11.76-0.53454 13.898-0.53454 2.1382-2.4054 5.0781-2.0045 23.252 0.4009 18.174-7.8845 54.389-7.8845 54.389l126.35-1.9998s2.7385-12.9 2.4712-17.511c-0.26726-4.6104 1.6704-8.6194 0.40091-10.29-1.2695-1.6704-12.361-13.965-14.366-28.932s-5.2118-23.72-5.2118-23.72-3.0068-8.8199-2.94-9.8222c0.0668-1.0023 0.0668-5.9467 4.009-7.0826 3.9422-1.1359-0.13363-11.426-0.13363-11.426l-6.0804-15.903s-1.1359-1.6036 0.20045-3.0736c1.3364-1.47 1.1359-3.5413 0.53454-5.5458-0.60136-2.0045-3.0736-15.702-3.274-22.852-0.20045-7.1495-0.66818-9.0872-1.7372-10.424-1.0691-1.3363-7.8845-11.693-9.154-13.163-1.2695-1.47-6.8154-7.5504-7.4836-9.7553-0.66818-2.205-3.9422-6.3477-6.4813-6.214s-4.8108-0.33409-4.8108-0.33409z"/>
<path d="m166.45 178.88 2.9293 1.7009 38.743 11.67 46.633 14.458s31.467 9.6384 34.49 11.198 8.1737 5.1499 2.6458 4.6302c-5.5279-0.51972-30.238-8.3155-30.238-8.3155l-37.231-11.576s-50.649-15.403-52.869-16.111c-2.2206-0.70871-6.5201-0.0472-6.5201-0.0472z"/>
<path d="m156.09 200.38s-36.081 6.949-52.251 14.299c-16.17 7.3499-71.628 40.224-71.628 40.224l7.7508-48.509z"/>
</g>
</g>
</svg>
