<?xml version="1.0" encoding="UTF-8"?>
<svg width="210mm" height="297mm" version="1.1" viewBox="0 0 210 297" xmlns="http://www.w3.org/2000/svg" xmlns:cc="http://creativecommons.org/ns#" xmlns:dc="http://purl.org/dc/elements/1.1/" xmlns:rdf="http://www.w3.org/1999/02/22-rdf-syntax-ns#">
<g transform="translate(15.119 4.5357)" fill="#000">
<path d="m21.167 179.83s2.6458 17.009-5.2917 10.961c-7.9375-6.0476-13.229-13.985-15.875-19.277-2.6458-5.2917-5.6696-8.6934-6.8036-16.631-1.1339-7.9375-5.2917-36.286-4.5357-43.089 0.75595-6.8036 0-19.655 6.4256-23.057 6.4256-3.4018 9.0714-8.3155 8.3155-16.253s3.0238-21.923 6.4256-25.702c3.4018-3.7798 9.4494-13.229 16.253-17.009 6.8036-3.7798 7.1815-13.607 17.009-9.4494 9.8274 4.1577 10.583-7.5595 12.851-8.3155 2.2679-0.75595 6.4256-8.6935 18.899-2.6458 12.473 6.0476 30.994-0.37798 30.994-0.37798s27.97 1.1339 35.908 9.4494 23.057 8.6935 26.836 15.497c3.7798 6.8036 12.095 21.167 14.363 37.42 2.2679 16.253 9.4494 28.348 6.4256 41.577-3.0238 13.229-4.9137 20.411-9.8274 34.396s3.8516 37.791-7.5595 44.223c-10.394 5.8586-10.316 27.708-13.796 34.963-5.9324 12.366-54.164 50.649-54.618 50.082 0 0-20.411 10.961-32.506 5.2917-12.095-5.6696 10.205-14.363 10.205-14.363s15.497-9.8274 1.8899-11.717c-13.607-1.8899-16.631-5.2917-16.631-5.2917s-8.3155-7.5595 4.9137-6.4256c13.229 1.1339 20.411-9.0714 14.363-9.8274-6.0476-0.75595-29.482 2.6458-29.482 2.6458l-3.7798 13.229c-1.4722 1.7667-6.7452-10.894-6.4256-15.497 0.29702-4.2788 5.2097-15.76 10.205-15.497 4.5295 0.2383 18.521-4.1577 20.411-1.5119 1.8899 2.6458 3.4018-9.8274 3.4018-9.8274l-13.418-5.1027 8.1265-33.073s-4.5357-18.143-15.875-4.5357c-11.339 13.607-10.583-2.6458-10.583-2.6458l73.705-15.497 0.37797-34.396-104.32-12.473-17.387 40.821z"/>
<path d="m91.848 131.07s14.741-0.37797 3.4018 6.8036c-11.339 7.1816 7.1816 34.018 7.1816 34.018s50.649 4.5357 51.027-0.75595c0.37798-5.2917-5.2917-74.461-5.2917-74.461l-83.533-29.104z"/>
<path d="m94.494 139.76-18.899 7.1816s-2.2679 3.0238-3.7798 6.4256c-1.5119 3.4018-4.5357-7.5595-8.3155-4.9137-3.7798 2.6458-3.7798 9.4494-4.9137 7.1816-1.1339-2.2678-18.143-6.0476-22.679-2.6458-4.5357 3.4018 3.0238 6.0476 3.0238 6.0476l9.4494 3.4018 49.893-11.339z"/>
<path d="m115.28 150.35-29.86 38.932-9.8274-42.333z"/>
<path d="m38.554 159.23-12.473 3.2128s-7.9375 3.7798-4.1577 8.1265c3.7798 4.3467 7.5595-4.3467 7.5595-4.3467s3.0238-2.8348 5.1027 2.2678c2.0789 5.1027 9.4494 0.94494 9.4494 0.94494l2.4568-0.56696s-1.5119 1.1339-6.2366 5.1027c-4.7247 3.9688-2.2679 4.9137-2.2679 4.9137s7.9375-0.37798 9.6384-1.7009c1.7009-1.3229 8.6935-8.6934 8.6935-8.6934l9.6384-10.583-23.435-0.56696z"/>
<path d="m91.848 131.07s-5.8586 5.2917-4.9137-4.5357c0.94494-9.8274 17.198-20.978 17.198-20.978z"/>
<path d="m60.854 121.81s9.6384 10.961 25.891 4.5357c16.253-6.4256 20.6-33.073 20.6-33.073l-99.219 1.1339 50.46 20.033z"/>
<path d="m60.854 121.81s-0.56696 7.1816-4.1577 8.1265c-3.5908 0.94494-6.0476 0.94494-3.2128-3.7798 2.8348-4.7247 2.6458-18.143-5.6696-10.772-8.3155 7.3705-8.8824-3.5908-8.8824-3.5908l2.2679-19.466 46.869 16.253z"/>
<path d="m26.08 128.61-3.7798-4.9137s-1.5119-1.1339-3.4018 8.6935 0.94494 21.923 0.94494 21.923-3.5908 6.6146-1.1339 16.064c2.4568 9.4494 0.75595 16.631 0.75595 16.631l-24.946-65.39 22.112-30.238 24.568 0.94494-3.0238 23.624s-1.3229 4.5357-0.75595 10.961c0.56696 6.4256-9.2604 5.1027-9.2604 5.1027s4.3467-4.7247 4.1577-7.5595c-0.18899-2.8348-5.6696 4.9137-5.6696 4.9137z"/>
<path d="m3.7798 124.64-4.7247 22.679 16.253 10.016z"/>
<path d="m91.281 155.64-15.497 4.7247-14.93-1.1339 5.1027-1.3229 16.253-4.9137 10.394 3.0238z"/>
</g>
</svg>
