<?xml version="1.0" encoding="UTF-8"?>
<svg width="210mm" height="297mm" version="1.1" viewBox="0 0 210 297" xmlns="http://www.w3.org/2000/svg" xmlns:cc="http://creativecommons.org/ns#" xmlns:dc="http://purl.org/dc/elements/1.1/" xmlns:rdf="http://www.w3.org/1999/02/22-rdf-syntax-ns#">
<g transform="matrix(1.2005 0 0 1.2005 -40.203 -6.2832)">
<g>
<path d="m54.256 20.911s-7.7508 3.4745-5.6127 9.0872c2.1382 5.6127 8.5526 10.691 8.5526 10.691s1.3363 4.2763-0.80181 8.2854-6.1472 14.433-5.8799 16.303c0.26727 1.8709 2.4054 6.949 2.4054 6.949l-14.7 17.907s-2.1382 3.7418 4.2763 6.4145c6.4145 2.6727 12.829 3.2072 12.829 3.2072l65.481 5.0781 51.583 4.5436s-2.1382-18.976-0.80181-21.649c1.3364-2.6727 1.6036-25.792 0.93545-28.464-0.66818-2.6727-0.93545-15.635-1.47-16.838-0.53454-1.2027-5.6127-14.299-10.29-17.105s-7.7508-4.5436-9.7553-7.0826c-2.0045-2.5391-13.497-8.1517-16.704-9.7553-3.2072-1.6036-8.2854-2.94-13.631-2.8063-5.3454 0.13363-10.156-2.0045-12.963-0.4009-2.8063 1.6036-5.6795 3.675-6.6149 1.5368-0.93545-2.1382-4.6403 1.9666-5.4122 1.1359-0.54209-0.58337-12.688-0.52979-16.838 3.3409-3.3356 3.111-14.098-2.4054-14.098-2.4054l8.0849 3.6081-5.8131-1.3363s-4.8777 0.4009-0.46772 1.3363c4.4099 0.93544 0.80181 2.1382 0.80181 2.1382s-7.4835 0.26727-9.2208 1.47c-1.7373 1.2027-3.8754 4.8109-3.8754 4.8109z"/>
<path d="m43.431 89.332-0.80181 7.2163s5.479 1.6036 6.0136 4.4099c0.53454 2.8063 0.20045 4.8777 0.20045 4.8777s-1.2695 1.1359-1.0691 1.9377c0.38944 2.0302 2.1658 3.6568 3.8363 4.2581 1.6704 0.60136 3.9145 1.4882 2.5782 2.4236-1.3363 0.93545-3.3792 2.2857-3.1728 3.7303 0.4009 2.8063 0.23288 2.016 0.96787 2.6173 0.73499 0.60136 4.4099-0.26727 4.5436 1.4032 0.13364 1.6704-0.93544 2.1382-1.1359 5.1449-0.20045 3.0068-1.0691 9.6217 4.2763 10.891 5.3454 1.2695 13.297 2.6727 26.727 1.2027 13.43-1.47 21.382-22.05 21.382-22.05l62.808-13.096z"/>
<path d="m111.99 129.89-32.273 2.6727s11.693 3.2072 13.898 7.1495c2.205 3.9422 3.675 11.493 2.0713 13.43-1.6036 1.9377-8.6194 8.5526-10.023 9.8222-1.4032 1.2695-11.96 13.43-11.96 13.43s-3.3409 3.0068-0.53454 6.1472c2.8063 3.1404 9.2208 6.949 5.3454 12.896-3.8754 5.9468-18.241 34.344-18.375 36.75-0.13363 2.4054-3.8754 8.7531-3.8754 14.499 0 5.7463 3.1404 8.0181 10.891 3.4077 7.7508-4.6104 35.547-28.13 35.547-28.13s29.466-24.722 33.81-25.391c4.3431-0.66817 24.388-26.861 24.388-26.861z"/>
<path d="m132.16 195.3 2.6727 2.0713s13.43-8.0849 24.522-8.0181c11.092 0.0668 19.845 3.5413 24.722 8.2185 4.8777 4.6772 12.896 2.8731 11.092-4.2763s-9.5549-34.411-11.693-37.885c-2.1382-3.4745-5.2118-14.032-11.092-19.243s-43.565 4.6772-43.565 4.6772z"/>
<path d="m141.65 117.06-4.6104-11.96 35.079 2.8732s1.5368 1.2695-2.94 5.479c-4.4768 4.2095-9.9558 2.0713-9.9558 2.0713l-8.6863 24.455-29.066 2.4722-31.137-14.232 18.041-16.905 26.326-2.4722z"/>
<path d="m160.03 127.82-2.8063-18.909 10.29 4.9445s0.80181 1.3363 2.4054 1.8041c1.6036 0.46772 2.1382 21.649 2.1382 21.649l-21.047 7.8176-14.366-19.978 19.177-17.506 5.6795 6.1472z"/>
<path d="m133.7 104.77-2.0045 18.442 32.273 8.6863-10.223-25.19z"/>
<rect x="112.25" y="91.737" width="20.847" height="68.956"/>
</g>
</g>
</svg>
