<?xml version="1.0" encoding="UTF-8"?>
<svg width="210mm" height="297mm" version="1.1" viewBox="0 0 210 297" xmlns="http://www.w3.org/2000/svg" xmlns:cc="http://creativecommons.org/ns#" xmlns:dc="http://purl.org/dc/elements/1.1/" xmlns:rdf="http://www.w3.org/1999/02/22-rdf-syntax-ns#">
<g transform="matrix(.69938 0 0 .74329 20.322 31.012)">
<g fill="#000">
<path d="m60.47 9.1507c-0.83628 7.7561 0.91797 10.894-1.1359 12.695-3.5341 3.1414-15.769 9.8222-25.658 11.626-9.6964 1.7689-19.511 11.225-19.511 11.225 9.192-0.6289 18.121 1.5216 26.727 3.2072 9.0649 3.2194 17.662 4.9452 26.393 2.6059 0 0 2.0713 10.156 8.6194 13.43 5.0258 2.5129 42.496 26.192 42.496 26.192l23.787-43.298c0.47336-5.2496 0.76928-9.7576 1.8041-16.036-0.11359-4.3545 1.9248-4.8914 3.5413-5.6127 10.313 0.33364 18.365-8.6222 26.662-26.929 2.5738-5.7859 5.4691-6.3536 9.5529-7.3479-3.2319-3.6353-5.7224-7.2676-15.101-3.675-12.598 7.8258-27.984 10.793-33.474 9.2113-2.2761-6.1472-4.0766-10.481-18.911-16.628-3.1034-1.2574-11.704-6.006-22.544-4.4675-3.3532 0.47592-6.8588 2.8456-11.934 4.9352-2.8601 1.1104-7.3233 2.1406-9.3623 5.1443-6.0855 8.9646-11.694 21.213-11.952 23.721z"/>
<path d="m132.86 134.28-53.862-71.626s-11.339 0.37798-12.001 8.9769c-0.66146 8.599 1.7009 11.623-3.9688 24.474-5.6696 12.851-5.3862 14.552-10.016 14.458-4.6302-0.0945-6.8036 0.28348-9.1659 7.3705-2.3624 7.087-10.016 12.001-16.82 11.812-6.8036-0.18899-8.599 4.7247-8.8824 5.2917-0.28348 0.56697-0.09449 3.6853 2.0789 7.0871 2.1734 3.4018-10.678 7.9375-12.473 9.2604-1.7954 1.3229-8.3155 5.9531-9.9219 9.8274-1.6064 3.8743-2.4568 8.6935 1.4174 13.796 3.8743 5.1027 5.1027 5.1027 5.1027 5.1027l-0.37798-3.5908 4.5357-0.0945s-2.5513 23.812-2.7403 27.12c-0.18899 3.3073-0.56696 20.411 1.7954 32.978 2.3624 12.568 4.1577 20.978 4.1577 20.978s9.7329-26.647 7.0871-33.829c-2.6458-7.1816-4.9137-49.326-4.0632-53.673 0.85045-4.3467 1.4174-7.276 3.3073 0s11.528 19.277 15.025 22.112 13.702 7.1815 18.71 6.1421c5.0082-1.0394 12.19-25.891 12.19-25.891z"/>
<path d="m13.607 231.8 4.5347 4.4245s-1.5116 0.76948-0.37789 14.428c1.1337 13.658-5.4795 60.404-5.4795 62.135 0 1.7313-0.75579 15.005 0.18895 21.545 0.94474 6.5405-2.8342 4.6168-2.8342 4.6168s-4.5347-19.429-4.1568-27.701c0.37789-8.2719 4.5347-31.741 3.59-35.396-0.94474-3.655-2.6453-34.434-1.5116-38.859 1.1337-4.4245 6.0463-5.194 6.0463-5.194z"/>
<path d="m139.95 41.299 2.2417 5.5366s10.798-7.143 16.468-4.9696c5.6696 2.1734 22.584 3.5908 31.372 21.356 8.7879 17.765-49.137 15.403-49.137 15.403z"/>
<path d="m189.43 76.102-4.1427-13.43 5.5458 3.1404s0.26727 1.5368 1.0023 1.7373c0.73499 0.20045 7.0158 1.0691 8.0849 1.0023 1.0691-0.06682 2.94-1.8041 3.9422-2.5391 1.0023-0.73499 2.3386-3.2741 3.0068-4.6104 0.66818-1.3363 1.7372-5.8131 4.009-6.6817 2.2718-0.86863 5.8131-0.53454 6.6817 0.06682 0.86863 0.60136 4.1427 1.9377 4.3431 6.0804 0.20046 4.1427-4.5436 7.8845-4.5436 7.8845l-8.6863-2.4722-10.29 17.439z"/>
<path d="m215.69 64.743 1.6704 4.009s-2.94 11.092 6.0136 6.5481c8.9535-4.5436 11.426-2.94 12.228-1.4032 0.80181 1.5368 6.4813 8.0181-1.5368 11.626-8.0181 3.6081-9.6885 2.5391-9.5549 10.624 0.13364 8.0849 0.66817 14.032-0.33409 18.642s-9.2876 18.976-9.2876 18.976l-16.504-50.046z"/>
<path d="m224.44 113.32s-2.1382 7.6172-2.4054 10.49c-0.26727 2.8731-0.13364 2.3386 2.2718 9.889 2.4054 7.5504 3.274 15.368 3.274 15.368s0.0668 7.0158-0.33409 9.154c-0.4009 2.1382 1.8709 2.94 1.8709 4.0759 0 1.1359-0.80181 8.6863-3.0068 11.292-2.205 2.6059-5.2118 5.3454-9.6217 4.6772-4.4099-0.66817-17.773-4.6104-22.785-11.158-5.0113-6.5481-4.744-5.8131-7.9513-12.361-3.2072-6.5481 13.831-2.0045 13.831-2.0045l-9.0872-13.43-11.626 0.33408z"/>
<path d="m185.42 154.01-1.0023-5.8799s-1.5368-5.479-1.5368 0.66818c0 6.1472 1.4032 18.442 1.4032 18.442l1.8041 29.4s2.7395 25.524 5.2786 30.936 9.4212 32.807 9.4212 32.807l3.3409 18.909s1.3364 11.559 1.4032 13.631c0.0668 2.0713-0.20045 9.4881 3.675 16.17 3.8754 6.6817 16.571 21.315 16.571 21.315s2.5391 2.5391 0.66817 4.8109c-1.8709 2.2718-5.8131 1.0022-5.8131 1.0022l1.6036 2.8732s2.6727 4.0759 1.5368 7.4167c-1.1359 3.3409-8.0849 2.1382-8.0849 2.1382s-10.49-1.1359-12.495-0.53453c-2.0045 0.60137-6.7486 5.4122-6.7486 5.4122s-2.2718 1.2027-4.41-0.13364c-2.1382-1.3363-3.8086-3.4077-6.6149-3.2072s-6.8154-2.7395-6.8154-2.7395-9.2208 0.33409-10.49 0.86863c-1.2695 0.53453-7.0826 5.145-9.889 0.53453-2.8063-4.6104-2.3386-6.1472-2.3386-6.1472l3.6081-9.154s-22.584 1.8709-27.195 0.53454c-4.6104-1.3363 10.156-18.041 10.156-18.041l13.272-204.82 45.168 18.332z"/>
<path d="m135.69 334.61s-1.3229-2.6458-4.5357-0.75595c-3.2128 1.8899-5.8586 4.1578-10.772 2.6458-4.9137-1.5119-8.3155-0.37799-11.339 1.3229-3.0238 1.7009-7.9375 1.1339-10.583-0.37798s-4.5357 2.4568-7.1815 2.6458c-2.6458 0.189-15.497-0.56697-18.521 0-3.0238 0.56698-9.0714-1.8899-11.528-1.3229-2.4568 0.56697-0.56696-3.5908-9.4494-3.0238-8.8824 0.56698-14.552-3.5908-15.308-3.7798-0.75595-0.18899 0.56696-5.4807 6.8036-5.6696 6.2366-0.18896 12.851-5.2917 12.851-5.2917s-9.6384-4.3467-16.631-4.1577c-6.9926 0.18897 26.836-26.458 26.836-26.458l55.751 20.6 24.568 11.15z"/>
<path d="m43.656 193.43s9.2604 0.56697 8.3155 7.5595-13.229 104.89-13.229 104.89l-1.7009 10.961 15.497 2.4568 61.799 4.7247 16.064-58.019-50.46-84.478z"/>
<rect x="78.997" y="62.655" width="86.71" height="209.76"/>
<rect x="51.85" y="156.42" width="49.712" height="49.178"/>
<rect x="103.7" y="247.29" width="53.988" height="71.628"/>
<rect x="190.5" y="139.31" width="9.0872" height="13.43"/>
<rect x="122.94" y="50.043" width="28.331" height="22.985"/>
<rect x="186.15" y="143.92" width="4.3431" height="8.8216"/>
<rect x="195.41" y="75.317" width="13.796" height="4.1577"/>
<rect x="199.38" y="73.049" width="12.662" height="12.851"/>
<rect x="208.67" y="66.28" width="3.374" height="6.7695"/>
<rect x="204.3" y="67.757" width="4.9137" height="11.717"/>
<rect x="208.67" y="66.28" width="5.0749" height="15.652"/>
<rect x="204.3" y="66.28" width="4.3745" height="1.4779"/>
<rect x="198.38" y="77.037" width="6.214" height="6.6817"/>
<path d="m165.71 62.655-20.312 76.122 69.49-5.0113 9.5549-20.446-25.057-40.27z"/>
<path d="m190.5 139.31-1e-5 13.43h9.0872l1.3108-23.185z"/>
</g>
</g>
</svg>
